<svg width="1078" height="887" viewBox="0 0 1078 887" fill="none" xmlns="http://www.w3.org/2000/svg">
<path d="M323.254 827.29C323.254 827.29 323.254 827.29 323.269 886.408L152.316 886.408C161.784 876.976 173.32 864.877 184.963 851.351C191.818 843.349 198.891 834.586 205.636 825.442L264.445 826.366L323.254 827.29ZM127.784 864.633C123.648 868.73 119.948 872.35 116.791 875.399L114.832 877.304L114.614 877.114C108.082 881.499 98.7132 880.936 92.8251 875.421C65.3472 849.365 0.1367 782.319 0.089578 734.251C0.0401234 683.804 46.8432 642.832 104.58 642.78C162.317 642.727 209.201 683.614 209.25 734.062C209.278 762.617 186.327 797.856 161.953 827.29C150.311 841.293 138.34 853.963 128.437 863.966L127.784 864.633ZM139.53 734.125C139.513 717.277 123.922 703.68 104.64 703.698C85.3579 703.715 69.7932 717.34 69.8097 734.188C69.8262 751.036 85.4177 764.633 104.7 764.615C123.982 764.598 139.546 750.972 139.53 734.125Z" fill="black" fill-opacity="0.1"/>
<path d="M469.845 827.779H322.879V885.419C407.125 888.443 586.638 885.206 630.728 848.06C685.84 801.627 770.456 770.139 440.34 621.768C176.247 503.072 407.125 487.986 555.575 495.28L509.37 438.707H462.608C316.756 457.387 104.88 527.302 424.196 657.526C743.513 787.751 587.677 825.288 469.845 827.779Z" fill="black" fill-opacity="0.1"/>
<path d="M1077.57 94.3798C1077.62 143.733 1013.32 217.431 985.578 246.854C981.443 251.183 975.345 252.861 969.789 251.785L868.597 251.883C849.317 251.902 833.756 265.975 833.774 283.377C833.793 300.778 849.384 314.822 868.664 314.803L973.232 314.701C1030.96 314.645 1077.85 356.874 1077.9 408.979C1077.96 461.085 1031.16 503.405 973.432 503.461L672.362 503.754C681.828 494.011 693.361 481.515 705.001 467.543C711.855 459.278 718.925 450.226 725.669 440.782L973.365 440.541C992.645 440.522 1008.21 426.448 1008.19 409.047C1008.17 391.646 992.578 377.602 973.299 377.621L868.73 377.723C811 377.779 764.117 335.55 764.062 283.444C764.007 231.339 810.8 189.019 868.531 188.963L911.883 188.921C888.976 157.975 868.46 122.405 868.431 94.5831C868.376 42.4775 915.169 0.157647 972.899 0.10153C1030.63 0.0454133 1077.51 42.2742 1077.57 94.3798ZM647.83 481.264C643.695 485.495 639.996 489.235 636.84 492.384L634.882 494.352L634.664 494.156C628.133 498.684 618.765 498.104 612.877 492.407C585.399 465.496 520.188 396.249 520.136 346.602C520.081 294.496 566.874 252.176 624.604 252.12C682.335 252.064 729.217 294.293 729.272 346.398C729.304 375.892 706.359 412.29 681.992 442.692C670.352 457.155 658.384 470.243 648.483 480.575L647.83 481.264ZM659.56 346.466C659.542 329.065 643.951 315.021 624.671 315.04C605.391 315.059 589.83 329.133 589.848 346.534C589.866 363.935 605.458 377.979 624.737 377.96C644.017 377.941 659.579 363.867 659.56 346.466ZM973.032 125.941C992.312 125.923 1007.87 111.849 1007.86 94.4475C1007.84 77.0462 992.246 63.0027 972.966 63.0215C953.686 63.0402 938.125 77.114 938.143 94.5153C938.161 111.917 953.753 125.96 973.032 125.941Z" fill="black" fill-opacity="0.1"/>
</svg>
